<svg xmlns:dc="http://purl.org/dc/elements/1.1/" xmlns:cc="http://creativecommons.org/ns#" xmlns:rdf="http://www.w3.org/1999/02/22-rdf-syntax-ns#" xmlns:svg="http://www.w3.org/2000/svg" xmlns="http://www.w3.org/2000/svg" xmlns:sodipodi="http://sodipodi.sourceforge.net/DTD/sodipodi-0.dtd" xmlns:inkscape="http://www.inkscape.org/namespaces/inkscape" width="6mm" height="6mm" viewBox="0 0 6 6" version="1.1" id="svg1651" inkscape:version="0.92.3 (2405546, 2018-03-11)" sodipodi:docname="barrica.svg">
  <defs id="defs1645">
    <clipPath clipPathUnits="userSpaceOnUse" id="clipPath298">
      <path d="m 312.472,668.818 h 17 v 17 h -17 z" id="path296" inkscape:connector-curvature="0"></path>
    </clipPath>
    <clipPath clipPathUnits="userSpaceOnUse" id="clipPath208">
      <path d="m 311.273,504.896 h 18.579 v 17.824 h -18.579 z" id="path206" inkscape:connector-curvature="0"></path>
    </clipPath>
    <clipPath clipPathUnits="userSpaceOnUse" id="clipPath196">
      <path d="m 313.001,424.424 h 17.113 v 9.593 h -17.113 z" id="path194" inkscape:connector-curvature="0"></path>
    </clipPath>
    <clipPath clipPathUnits="userSpaceOnUse" id="clipPath164">
      <path d="M 0,858.898 H 612.288 V 0 H 0 Z" id="path162" inkscape:connector-curvature="0"></path>
    </clipPath>
  </defs>
  <sodipodi:namedview id="base" pagecolor="#ffffff" bordercolor="#666666" borderopacity="1.0" inkscape:pageopacity="0.0" inkscape:pageshadow="2" inkscape:zoom="14.69409" inkscape:cx="4.1388358" inkscape:cy="11.807374" inkscape:document-units="mm" inkscape:current-layer="layer1" showgrid="false" fit-margin-top="0" fit-margin-left="0" fit-margin-right="0" fit-margin-bottom="0" inkscape:window-width="1920" inkscape:window-height="1061" inkscape:window-x="-4" inkscape:window-y="-4" inkscape:window-maximized="1"></sodipodi:namedview>
  <metadata id="metadata1648">
    <rdf:rdf>
      <cc:work rdf:about="">
        <dc:format>image/svg+xml</dc:format>
        <dc:type rdf:resource="http://purl.org/dc/dcmitype/StillImage"></dc:type>
        <dc:title></dc:title>
      </cc:work>
    </rdf:rdf>
  </metadata>
  <g inkscape:label="Capa 1" inkscape:groupmode="layer" id="layer1" transform="translate(-76.382199,-55.873607)">
    <g transform="matrix(0.28397615,0,0,-0.28397615,-11.904778,142.37686)" id="g158">
      <g id="g160" clip-path="url(#clipPath164)">
        <g id="g166" transform="translate(328.7814,287.4613)">
          <path d="m 0,0 h -0.591 c 0.335,2.077 0.505,4.282 0.505,6.562 0,1.219 -0.05,2.435 -0.149,3.618 H 0.431 C 0.55,9.003 0.61,7.791 0.61,6.562 0.61,4.275 0.402,2.054 0,0 m -1.106,-3.271 h -0.185 c 0.063,0.229 0.123,0.461 0.181,0.697 h 0.477 c -0.046,-0.155 -0.094,-0.309 -0.143,-0.461 -0.045,-0.141 -0.178,-0.236 -0.33,-0.236 m -12.636,0.236 c -0.049,0.152 -0.097,0.306 -0.143,0.461 h 0.477 c 0.058,-0.236 0.118,-0.468 0.18,-0.697 h -0.184 c -0.152,0 -0.285,0.095 -0.33,0.236 m -1.207,13.215 h 0.666 c -0.099,-1.183 -0.149,-2.399 -0.149,-3.618 0,-2.28 0.17,-4.485 0.505,-6.562 h -0.591 c -0.402,2.054 -0.61,4.275 -0.61,6.562 0,1.229 0.06,2.441 0.179,3.618 m 1.537,6.213 h 0.184 c -0.119,-0.437 -0.231,-0.888 -0.334,-1.351 h -0.51 c 0.103,0.38 0.213,0.752 0.33,1.115 0.045,0.141 0.178,0.236 0.33,0.236 m 12.636,-0.236 c 0.117,-0.363 0.227,-0.735 0.33,-1.115 h -0.511 c -0.102,0.463 -0.214,0.914 -0.334,1.351 h 0.185 c 0.152,0 0.285,-0.095 0.33,-0.236 M -14.58,12.796 h 0.601 c -0.034,-0.231 -0.067,-0.463 -0.098,-0.696 H -14.7 c 0.038,0.233 0.077,0.465 0.12,0.696 M -0.441,12.1 c -0.031,0.233 -0.063,0.465 -0.099,0.695 h 0.602 c 0.042,-0.23 0.082,-0.462 0.12,-0.695 z m -1.861,0 c -0.022,0.233 -0.046,0.465 -0.071,0.695 h 1.214 c 0.036,-0.23 0.07,-0.462 0.101,-0.695 z m -2.791,0 c -0.009,0.233 -0.018,0.465 -0.028,0.695 h 2.133 c 0.025,-0.23 0.049,-0.462 0.071,-0.695 z m -3.691,0.696 h 3.05 c 0.01,-0.231 0.02,-0.463 0.029,-0.696 h -3.108 c 0.009,0.233 0.019,0.465 0.029,0.696 m -2.746,0 h 2.133 C -9.407,12.565 -9.416,12.333 -9.425,12.1 h -2.177 c 0.023,0.233 0.047,0.465 0.072,0.696 M -13.46,12.1 c 0.031,0.233 0.065,0.465 0.101,0.695 h 1.213 c -0.024,-0.23 -0.048,-0.462 -0.07,-0.695 z m 13.172,2.331 c 0.082,-0.336 0.159,-0.677 0.23,-1.024 H -14.46 c 0.071,0.347 0.148,0.688 0.23,1.024 z m -1.637,1.962 c 0.122,-0.435 0.236,-0.887 0.341,-1.351 h -1.087 c -0.074,0.463 -0.154,0.915 -0.24,1.351 z m -1.609,0 c 0.087,-0.435 0.168,-0.887 0.243,-1.351 h -1.95 c -0.03,0.464 -0.062,0.915 -0.096,1.351 z m -2.417,0 c 0.034,-0.435 0.067,-0.887 0.097,-1.351 h -2.81 c 0.03,0.464 0.062,0.915 0.097,1.351 z m -3.23,0 c -0.034,-0.436 -0.066,-0.888 -0.096,-1.351 h -1.95 c 0.075,0.464 0.156,0.916 0.243,1.351 z m -2.426,0 c -0.086,-0.436 -0.166,-0.888 -0.24,-1.351 h -1.087 c 0.105,0.464 0.219,0.916 0.341,1.351 z m 1.405,-5.602 c -0.169,0 -0.306,-0.137 -0.306,-0.306 0,-0.169 0.137,-0.305 0.306,-0.305 h 0.718 C -9.513,8.997 -9.527,7.782 -9.527,6.562 -9.527,4.281 -9.478,2.076 -9.382,0 h -2.11 c -0.243,2.074 -0.366,4.279 -0.366,6.562 0,1.22 0.036,2.436 0.108,3.618 h 0.24 c 0.169,0 0.306,0.136 0.306,0.305 0,0.169 -0.137,0.306 -0.306,0.306 h -3.372 c 0.028,0.234 0.058,0.466 0.09,0.696 H 0.274 c 0.032,-0.23 0.062,-0.462 0.09,-0.696 z m 1.287,-4.229 c 0,1.22 0.015,2.435 0.043,3.618 h 3.226 C -5.617,8.997 -5.603,7.782 -5.603,6.562 -5.603,4.28 -5.652,2.075 -5.749,0 H -8.77 c -0.096,2.075 -0.145,4.28 -0.145,6.562 m -4.905,0 c 0,1.22 0.051,2.436 0.151,3.618 h 1.305 c -0.07,-1.183 -0.106,-2.398 -0.106,-3.618 0,-2.28 0.121,-4.486 0.362,-6.562 h -1.199 c -0.34,2.073 -0.513,4.279 -0.513,6.562 m 1.227,-9.833 c -0.063,0.228 -0.125,0.46 -0.185,0.697 h 1.041 c 0.042,-0.236 0.085,-0.468 0.13,-0.697 z m 1.61,0 c -0.046,0.228 -0.09,0.46 -0.133,0.697 h 1.884 c 0.016,-0.236 0.033,-0.469 0.051,-0.697 z m 2.416,0 c -0.018,0.228 -0.036,0.46 -0.052,0.697 h 2.72 c -0.017,-0.237 -0.034,-0.469 -0.052,-0.697 z m 3.23,0 c 0.018,0.228 0.035,0.461 0.051,0.697 h 1.884 c -0.043,-0.237 -0.087,-0.469 -0.133,-0.697 z m 2.426,0 c 0.045,0.229 0.088,0.461 0.13,0.697 H -1.74 C -1.8,-2.811 -1.862,-3.043 -1.925,-3.271 Z m 2.454,1.309 h -13.604 c -0.12,0.44 -0.23,0.891 -0.33,1.35 h 9.748 c 0.169,0 0.306,0.137 0.306,0.306 0,0.169 -0.137,0.306 -0.306,0.306 h -0.493 c 0.096,2.076 0.145,4.281 0.145,6.562 0,1.22 -0.014,2.435 -0.043,3.618 h 2.266 C -2.696,8.998 -2.66,7.782 -2.66,6.562 -2.66,4.279 -2.783,2.074 -3.025,0 h -0.31 c -0.169,0 -0.306,-0.137 -0.306,-0.306 0,-0.169 0.137,-0.306 0.306,-0.306 h 3.208 c -0.1,-0.459 -0.21,-0.91 -0.33,-1.35 M -0.698,6.562 C -0.698,4.279 -0.871,2.073 -1.211,0 H -2.41 c 0.241,2.076 0.362,4.282 0.362,6.562 0,1.22 -0.036,2.435 -0.106,3.618 h 1.305 c 0.1,-1.182 0.151,-2.398 0.151,-3.618 m 0.504,9.784 c -0.127,0.393 -0.493,0.659 -0.912,0.659 h -12.306 c -0.419,0 -0.785,-0.266 -0.912,-0.659 -0.926,-2.871 -1.416,-6.254 -1.416,-9.784 0,-3.531 0.49,-6.915 1.416,-9.786 0.127,-0.393 0.493,-0.658 0.912,-0.658 h 12.306 c 0.419,0 0.785,0.265 0.912,0.658 0.926,2.871 1.416,6.255 1.416,9.786 0,3.53 -0.49,6.913 -1.416,9.784" style="fill-opacity:1;fill-rule:nonzero;stroke:none" id="path168" inkscape:connector-curvature="0"></path>
        </g>
        <g id="g170" transform="translate(321.5221,295.6361)">
          <path d="M 0,0 C -0.191,0 -0.348,0.156 -0.348,0.349 -0.348,0.54 -0.191,0.696 0,0.696 0.192,0.696 0.348,0.54 0.348,0.349 0.348,0.156 0.192,0 0,0 m 0,1.309 c -0.529,0 -0.959,-0.431 -0.959,-0.96 0,-0.53 0.43,-0.96 0.959,-0.96 0.53,0 0.96,0.43 0.96,0.96 0,0.529 -0.43,0.96 -0.96,0.96" style="fill-opacity:1;fill-rule:nonzero;stroke:none" id="path172" inkscape:connector-curvature="0"></path>
        </g>
      </g>
    </g>
  </g>
</svg>