<svg xmlns:dc="http://purl.org/dc/elements/1.1/" xmlns:cc="http://creativecommons.org/ns#" xmlns:rdf="http://www.w3.org/1999/02/22-rdf-syntax-ns#" xmlns:svg="http://www.w3.org/2000/svg" xmlns="http://www.w3.org/2000/svg" xmlns:sodipodi="http://sodipodi.sourceforge.net/DTD/sodipodi-0.dtd" xmlns:inkscape="http://www.inkscape.org/namespaces/inkscape" width="6mm" height="6mm" viewBox="0 0 6 6" version="1.1" id="svg1651" inkscape:version="0.92.3 (2405546, 2018-03-11)" sodipodi:docname="botella.svg">
  <defs id="defs1645">
    <clipPath clipPathUnits="userSpaceOnUse" id="clipPath298">
      <path d="m 312.472,668.818 h 17 v 17 h -17 z" id="path296" inkscape:connector-curvature="0"></path>
    </clipPath>
    <clipPath clipPathUnits="userSpaceOnUse" id="clipPath208">
      <path d="m 311.273,504.896 h 18.579 v 17.824 h -18.579 z" id="path206" inkscape:connector-curvature="0"></path>
    </clipPath>
    <clipPath clipPathUnits="userSpaceOnUse" id="clipPath196">
      <path d="m 313.001,424.424 h 17.113 v 9.593 h -17.113 z" id="path194" inkscape:connector-curvature="0"></path>
    </clipPath>
    <clipPath clipPathUnits="userSpaceOnUse" id="clipPath164">
      <path d="M 0,858.898 H 612.288 V 0 H 0 Z" id="path162" inkscape:connector-curvature="0"></path>
    </clipPath>
    <clipPath clipPathUnits="userSpaceOnUse" id="clipPath180">
      <path d="m 313.584,195.436 h 18.635 v 18.723 h -18.635 z" id="path178" inkscape:connector-curvature="0"></path>
    </clipPath>
  </defs>
  <sodipodi:namedview id="base" pagecolor="#ffffff" bordercolor="#666666" borderopacity="1.0" inkscape:pageopacity="0.0" inkscape:pageshadow="2" inkscape:zoom="14.69409" inkscape:cx="4.1388358" inkscape:cy="11.807374" inkscape:document-units="mm" inkscape:current-layer="layer1" showgrid="false" fit-margin-top="0" fit-margin-left="0" fit-margin-right="0" fit-margin-bottom="0" inkscape:window-width="1920" inkscape:window-height="1061" inkscape:window-x="-4" inkscape:window-y="-4" inkscape:window-maximized="1"></sodipodi:namedview>
  <metadata id="metadata1648">
    <rdf:rdf>
      <cc:work rdf:about="">
        <dc:format>image/svg+xml</dc:format>
        <dc:type rdf:resource="http://purl.org/dc/dcmitype/StillImage"></dc:type>
        <dc:title></dc:title>
      </cc:work>
    </rdf:rdf>
  </metadata>
  <g inkscape:label="Capa 1" inkscape:groupmode="layer" id="layer1" transform="translate(-76.382199,-55.873607)">
    <g transform="matrix(0.32007848,0,0,-0.32007848,-23.982481,124.43576)" id="g174">
      <g id="g176" clip-path="url(#clipPath180)">
        <g id="g182" transform="translate(319.8981,198.9799)">
          <path d="M 0,0 -2.761,2.762 1.08,6.602 3.841,3.841 Z M 1.327,7.346 C 1.19,7.483 0.968,7.483 0.832,7.346 L -3.505,3.01 c -0.137,-0.138 -0.137,-0.36 0,-0.496 l 3.257,-3.257 c 0.137,-0.138 0.359,-0.138 0.496,0 l 4.336,4.336 c 0.138,0.136 0.138,0.359 0,0.496 z" style="fill-opacity:1;fill-rule:nonzero;stroke:none" id="path184" inkscape:connector-curvature="0"></path>
        </g>
        <g id="g186" transform="translate(330.2633,210.9066)">
          <path d="m 0,0 -1.296,1.296 1.109,1.109 1.296,-1.296 z m -0.744,-1.488 -2.04,2.041 0.619,0.619 2.041,-2.04 z m -1.659,-1.163 c -0.236,-0.238 -0.413,-0.528 -0.516,-0.847 -0.004,-0.013 -0.007,-0.025 -0.01,-0.038 l -0.465,-2.33 c -0.153,-0.773 -0.533,-1.483 -1.091,-2.039 l -6.71,-6.71 c -0.205,-0.205 -0.538,-0.205 -0.743,0 l -3.877,3.877 c -0.206,0.205 -0.206,0.538 0,0.743 l 6.779,6.78 c 0.536,0.536 1.213,0.908 1.953,1.072 l 2.284,0.509 c 0.013,0.003 0.026,0.007 0.039,0.012 0.299,0.104 0.572,0.275 0.797,0.499 l 0.931,0.932 1.544,-1.545 z m 2.464,5.8 c -0.137,0.137 -0.359,0.137 -0.496,0 L -1.792,1.792 -1.917,1.916 c -0.136,0.137 -0.358,0.137 -0.495,0 L -3.528,0.8 c -0.137,-0.137 -0.137,-0.359 0,-0.495 L -4.459,-0.627 C -4.604,-0.772 -4.78,-0.884 -4.973,-0.954 l -2.262,-0.504 c -0.87,-0.193 -1.667,-0.631 -2.296,-1.262 l -6.78,-6.779 c -0.479,-0.48 -0.479,-1.256 0,-1.735 l 3.877,-3.877 c 0.479,-0.48 1.256,-0.48 1.735,0 l 6.71,6.71 c 0.656,0.654 1.102,1.489 1.283,2.397 l 0.461,2.31 c 0.069,0.207 0.185,0.393 0.338,0.548 l 0.915,0.914 c 0.137,-0.137 0.359,-0.137 0.496,0 l 1.116,1.116 c 0.136,0.137 0.136,0.359 0,0.496 L 0.496,-0.496 1.853,0.86 c 0.137,0.138 0.137,0.36 0,0.496 z" style="fill-opacity:1;fill-rule:nonzero;stroke:none" id="path188" inkscape:connector-curvature="0"></path>
        </g>
      </g>
    </g>
  </g>
</svg>