<svg xmlns:dc="http://purl.org/dc/elements/1.1/" xmlns:cc="http://creativecommons.org/ns#" xmlns:rdf="http://www.w3.org/1999/02/22-rdf-syntax-ns#" xmlns:svg="http://www.w3.org/2000/svg" xmlns="http://www.w3.org/2000/svg" xmlns:sodipodi="http://sodipodi.sourceforge.net/DTD/sodipodi-0.dtd" xmlns:inkscape="http://www.inkscape.org/namespaces/inkscape" width="6mm" height="6mm" viewBox="0 0 6 6" version="1.1" id="svg1651" inkscape:version="0.92.3 (2405546, 2018-03-11)" sodipodi:docname="estrella.svg">
  <defs id="defs1645">
    <clipPath clipPathUnits="userSpaceOnUse" id="clipPath298">
      <path d="m 312.472,668.818 h 17 v 17 h -17 z" id="path296" inkscape:connector-curvature="0"></path>
    </clipPath>
    <clipPath clipPathUnits="userSpaceOnUse" id="clipPath208">
      <path d="m 311.273,504.896 h 18.579 v 17.824 h -18.579 z" id="path206" inkscape:connector-curvature="0"></path>
    </clipPath>
  </defs>
  <sodipodi:namedview id="base" pagecolor="#ffffff" bordercolor="#666666" borderopacity="1.0" inkscape:pageopacity="0.0" inkscape:pageshadow="2" inkscape:zoom="14.69409" inkscape:cx="4.1388358" inkscape:cy="11.807374" inkscape:document-units="mm" inkscape:current-layer="layer1" showgrid="false" fit-margin-top="0" fit-margin-left="0" fit-margin-right="0" fit-margin-bottom="0" inkscape:window-width="1920" inkscape:window-height="1061" inkscape:window-x="-4" inkscape:window-y="-4" inkscape:window-maximized="1"></sodipodi:namedview>
  <metadata id="metadata1648">
    <rdf:rdf>
      <cc:work rdf:about="">
        <dc:format>image/svg+xml</dc:format>
        <dc:type rdf:resource="http://purl.org/dc/dcmitype/StillImage"></dc:type>
        <dc:title></dc:title>
      </cc:work>
    </rdf:rdf>
  </metadata>
  <g inkscape:label="Capa 1" inkscape:groupmode="layer" id="layer1" transform="translate(-76.382199,-55.873607)">
    <path style="fill-opacity:1;stroke-width:0.00503557" d="m 77.606227,61.723809 c -0.05891,-0.01841 -0.100293,-0.06577 -0.112689,-0.128912 -0.0049,-0.02527 -0.0012,-0.053 0.04772,-0.34222 0.02921,-0.173099 0.100697,-0.59684 0.158852,-0.941652 l 0.105735,-0.626929 -0.06411,-0.06383 c -0.03527,-0.0351 -0.342835,-0.333577 -0.683492,-0.663273 -0.69958,-0.677069 -0.654625,-0.62862 -0.654625,-0.705518 0,-0.03438 0.0019,-0.0427 0.01762,-0.07334 0.01985,-0.03894 0.05219,-0.0675 0.09063,-0.08006 0.01245,-0.0041 0.198277,-0.03344 0.412917,-0.06526 0.791821,-0.117399 1.482991,-0.220452 1.483508,-0.22119 2.4e-4,-4.83e-4 0.188913,-0.38598 0.419161,-0.856808 0.410403,-0.839223 0.41917,-0.856556 0.446065,-0.881976 0.03322,-0.03139 0.06673,-0.04433 0.114327,-0.04415 0.04234,1.67e-4 0.09067,0.02227 0.118033,0.05396 0.01214,0.01404 0.159282,0.304973 0.438604,0.867129 0.23119,0.465287 0.42301,0.848596 0.426266,0.8518 0.0033,0.0032 0.06484,0.014 0.136845,0.02401 0.07201,0.01 0.494702,0.06993 0.939319,0.133199 0.619492,0.08814 0.813851,0.117444 0.831753,0.125364 0.08677,0.03839 0.122235,0.143727 0.07661,0.227563 -0.0094,0.01727 -0.202791,0.210017 -0.694414,0.692092 -0.474597,0.46538 -0.680792,0.670756 -0.679444,0.67674 10e-4,0.0047 0.07384,0.418742 0.161717,0.920033 0.174276,0.994146 0.17194,0.978008 0.148444,1.025711 -0.03438,0.0698 -0.117169,0.108376 -0.189784,0.08843 -0.01385,-0.0038 -0.403065,-0.204379 -0.864925,-0.445726 l -0.839748,-0.438812 -0.832062,0.441169 c -0.457636,0.242641 -0.84285,0.445338 -0.856035,0.450439 -0.02782,0.01076 -0.07208,0.01163 -0.102803,0.0019 z m 0.998725,-0.846254 c 0.395611,-0.209458 0.730151,-0.384383 0.743422,-0.388724 0.01677,-0.0055 0.0355,-0.0072 0.0614,-0.0055 l 0.03727,0.0024 0.735891,0.383906 c 0.404742,0.211146 0.73704,0.382756 0.738442,0.381355 0.0015,-0.0015 -0.06131,-0.368122 -0.139373,-0.814932 -0.111888,-0.640442 -0.141354,-0.818101 -0.139228,-0.839406 0.006,-0.06062 -0.01972,-0.0332 0.622822,-0.662706 0.500396,-0.490254 0.591934,-0.582051 0.582541,-0.584187 -0.0061,-0.0015 -0.374837,-0.05435 -0.819353,-0.117668 -0.643352,-0.09165 -0.813446,-0.117396 -0.833884,-0.126216 -0.05589,-0.0241 -0.03684,0.0105 -0.440122,-0.799518 l -0.370123,-0.74339 -0.362555,0.741626 c -0.289701,0.5926 -0.366904,0.746519 -0.384195,0.76596 -0.04258,0.04788 0.01641,0.03652 -0.887279,0.170828 -0.447287,0.06648 -0.816267,0.120871 -0.819961,0.12088 -0.0036,1e-5 -0.0059,0.0019 -0.005,0.0043 10e-4,0.0024 0.268104,0.262848 0.593735,0.578937 0.462099,0.44856 0.595189,0.580471 0.606342,0.600963 0.02784,0.05114 0.03251,0.01479 -0.115292,0.895562 -0.07366,0.438978 -0.135175,0.803526 -0.136691,0.810107 -0.0022,0.009 -0.001,0.01129 0.0046,0.0091 0.004,-0.0015 0.331026,-0.174191 0.726637,-0.383647 z" id="path1629" inkscape:connector-curvature="0"></path>
  </g>
</svg>