<svg xmlns:dc="http://purl.org/dc/elements/1.1/" xmlns:cc="http://creativecommons.org/ns#" xmlns:rdf="http://www.w3.org/1999/02/22-rdf-syntax-ns#" xmlns:svg="http://www.w3.org/2000/svg" xmlns="http://www.w3.org/2000/svg" xmlns:sodipodi="http://sodipodi.sourceforge.net/DTD/sodipodi-0.dtd" xmlns:inkscape="http://www.inkscape.org/namespaces/inkscape" width="6mm" height="6mm" viewBox="0 0 6 6" id="svg1651" inkscape:version="0.92.3 (2405546, 2018-03-11)" sodipodi:docname="fruta-ico.svg"><defs id="defs1645"><clipPath clipPathUnits="userSpaceOnUse" id="clipPath298"><path d="m 312.472,668.818 h 17 v 17 h -17 z" id="path296" inkscape:connector-curvature="0"></path></clipPath><clipPath clipPathUnits="userSpaceOnUse" id="clipPath208"><path d="m 311.273,504.896 h 18.579 v 17.824 h -18.579 z" id="path206" inkscape:connector-curvature="0"></path></clipPath><clipPath clipPathUnits="userSpaceOnUse" id="clipPath196"><path d="m 313.001,424.424 h 17.113 v 9.593 h -17.113 z" id="path194" inkscape:connector-curvature="0"></path></clipPath><clipPath clipPathUnits="userSpaceOnUse" id="clipPath164"><path d="M 0,858.898 H 612.288 V 0 H 0 Z" id="path162" inkscape:connector-curvature="0"></path></clipPath></defs><metadata id="metadata1648"></metadata><g inkscape:label="Capa 1" inkscape:groupmode="layer" id="layer1" transform="translate(-76.382199,-55.873607)"><g transform="matrix(0.31617225,0,0,-0.31617225,-18.346383,219.11009)" id="g1658"><g transform="translate(317.13729,501.28551)" id="g366"><path inkscape:connector-curvature="0" id="path368" style="fill-opacity:1;fill-rule:nonzero;stroke:none" d="m 0,0 c -0.377,-0.602 -0.906,-1.088 -1.572,-1.447 -1.17,-0.63 -2.381,-0.655 -2.436,-0.656 -0.054,0.001 -1.251,0.026 -2.414,0.656 -1.515,0.82 -2.298,2.285 -2.328,4.357 -0.011,0.819 0.096,1.574 0.317,2.243 0.205,0.623 0.51,1.151 0.88,1.526 0.452,0.458 0.992,0.691 1.605,0.691 h 0.001 C -5.469,7.369 -4.95,7.229 -4.402,6.952 V 6.262 C -4.979,5.746 -5.985,4.669 -5.985,3.424 c 0,-1.747 1.979,-3.162 1.979,-3.162 0,0 1.978,1.415 1.978,3.162 0,1.245 -1.006,2.322 -1.583,2.838 v 0.691 c 0.547,0.276 1.065,0.417 1.54,0.417 0.602,0 1.133,-0.228 1.58,-0.676 C -0.119,6.32 0.189,5.791 0.399,5.164 0.625,4.491 0.737,3.729 0.734,2.902 0.729,1.745 0.482,0.769 0,0 m -15.175,1.751 c -0.452,0.316 -0.79,0.749 -1.033,1.325 -0.296,0.699 -0.445,1.611 -0.445,2.712 0,1.104 0.152,2.02 0.452,2.721 0.248,0.577 0.593,1.012 1.055,1.33 0.404,0.278 0.899,0.468 1.515,0.582 0.044,0.008 0.089,0.016 0.134,0.023 -1.02,-0.798 -1.667,-2.228 -1.667,-4.649 0,-2.428 0.651,-3.859 1.677,-4.656 -0.617,0.095 -1.205,0.276 -1.688,0.612 m -0.188,10.912 c 0.116,0.038 0.244,0.078 0.384,0.118 0.633,0.179 1.233,0.283 1.646,0.283 0.133,0 0.218,-0.011 0.267,-0.02 0.377,-0.071 0.717,-0.248 0.933,-0.486 0.095,-0.104 0.248,-0.314 0.206,-0.541 -0.062,-0.329 -0.524,-0.578 -1.073,-0.578 -0.119,0 -0.241,0.012 -0.361,0.035 -0.253,0.047 -0.775,0.279 -1.488,0.792 -0.193,0.139 -0.366,0.273 -0.514,0.397 M -6.678,8.072 C -8.471,7.626 -9.577,5.532 -9.54,2.899 -9.53,2.242 -9.452,1.66 -9.321,1.144 -9.646,1.083 -9.999,1.052 -10.375,1.052 c -1.285,0 -2.213,0.293 -2.839,0.893 -0.361,0.347 -0.631,0.797 -0.824,1.376 -0.222,0.667 -0.335,1.499 -0.335,2.474 0,0.976 0.113,1.808 0.335,2.475 0.193,0.579 0.463,1.028 0.824,1.375 0.626,0.601 1.554,0.893 2.839,0.893 0.606,0 1.149,-0.079 1.614,-0.233 0.479,-0.159 0.887,-0.404 1.215,-0.727 0.383,-0.38 0.673,-0.884 0.868,-1.506 M -4.006,5.551 C -3.878,5.43 -3.735,5.283 -3.594,5.118 -3.24,4.704 -2.818,4.073 -2.818,3.424 -2.818,2.775 -3.24,2.144 -3.594,1.729 -3.735,1.564 -3.878,1.418 -4.006,1.296 c -0.128,0.122 -0.272,0.268 -0.413,0.433 -0.354,0.415 -0.776,1.046 -0.776,1.695 0,0.649 0.422,1.28 0.776,1.694 0.141,0.166 0.285,0.312 0.413,0.433 m 1.935,2.609 c -0.479,0 -0.996,-0.107 -1.545,-0.338 -0.028,0.191 -0.191,0.338 -0.39,0.338 -0.2,0 -0.364,-0.147 -0.391,-0.339 -0.524,0.22 -1.02,0.328 -1.481,0.338 -0.655,2.299 -2.343,3.127 -4.34,3.168 -0.037,10e-4 -0.074,10e-4 -0.112,10e-4 -0.309,0 -0.64,0.008 -0.984,0.013 0.106,0.442 0.36,0.828 0.756,1.15 0.378,0.307 0.749,0.439 0.752,0.44 v 0.001 c 0.155,0.053 0.266,0.199 0.266,0.373 0,0.218 -0.176,0.395 -0.395,0.395 -0.044,0 -0.087,-0.008 -0.128,-0.022 -0.02,-0.007 -0.485,-0.168 -0.968,-0.554 -0.116,-0.092 -0.223,-0.189 -0.322,-0.291 -0.297,0.475 -0.866,0.856 -1.567,0.988 -0.123,0.023 -0.262,0.033 -0.413,0.033 -1.246,0 -3.276,-0.717 -3.32,-0.95 -0.038,-0.2 1.173,-1.275 2.252,-1.855 -1.679,-0.504 -3.043,-1.831 -3.043,-5.261 0,-5.105 2.99,-5.54 5.563,-5.54 0.447,0 0.881,0.013 1.286,0.017 0.073,-0.002 0.146,-0.003 0.22,-0.003 0.451,0 0.887,0.039 1.301,0.125 1.33,-3.276 5.046,-3.281 5.066,-3.281 0.025,0 5.507,0.007 5.532,5.793 C 1.538,5.874 0.138,8.16 -2.071,8.16"></path></g><g transform="translate(313.14369,505.49941)" id="g370"><path inkscape:connector-curvature="0" id="path372" style="fill-opacity:1;fill-rule:nonzero;stroke:none" d="M 0,0 C 0.218,0 0.395,0.177 0.395,0.396 0.395,0.614 0.218,0.791 0,0.791 -0.219,0.791 -0.396,0.614 -0.396,0.396 -0.396,0.177 -0.219,0 0,0"></path></g><g transform="translate(313.13099,503.91931)" id="g374"><path inkscape:connector-curvature="0" id="path376" style="fill-opacity:1;fill-rule:nonzero;stroke:none" d="m 0,0 c -0.218,0 -0.396,-0.177 -0.396,-0.396 0,-0.218 0.178,-0.395 0.396,-0.395 0.218,0 0.395,0.177 0.395,0.395 C 0.395,-0.177 0.218,0 0,0"></path></g><g transform="translate(312.93319,504.70931)" id="g378"><path inkscape:connector-curvature="0" id="path380" style="fill-opacity:1;fill-rule:nonzero;stroke:none" d="m 0,0 c 0,0.218 -0.177,0.396 -0.395,0.396 -0.218,0 -0.396,-0.178 -0.396,-0.396 0,-0.218 0.178,-0.396 0.396,-0.396 C -0.177,-0.396 0,-0.218 0,0"></path></g><g transform="translate(313.32829,504.70931)" id="g382"><path inkscape:connector-curvature="0" id="path384" style="fill-opacity:1;fill-rule:nonzero;stroke:none" d="m 0,0 c 0,-0.218 0.177,-0.396 0.396,-0.396 0.218,0 0.395,0.178 0.395,0.396 0,0.218 -0.177,0.396 -0.395,0.396 C 0.177,0.396 0,0.218 0,0"></path></g></g></g></svg>