<svg xmlns:dc="http://purl.org/dc/elements/1.1/" xmlns:cc="http://creativecommons.org/ns#" xmlns:rdf="http://www.w3.org/1999/02/22-rdf-syntax-ns#" xmlns:svg="http://www.w3.org/2000/svg" xmlns="http://www.w3.org/2000/svg" xmlns:sodipodi="http://sodipodi.sourceforge.net/DTD/sodipodi-0.dtd" xmlns:inkscape="http://www.inkscape.org/namespaces/inkscape" width="6mm" height="6mm" viewBox="0 0 6 6" version="1.1" id="svg1651" inkscape:version="0.92.3 (2405546, 2018-03-11)" sodipodi:docname="gusto.svg">
  <defs id="defs1645">
    <clipPath clipPathUnits="userSpaceOnUse" id="clipPath298">
      <path d="m 312.472,668.818 h 17 v 17 h -17 z" id="path296" inkscape:connector-curvature="0"></path>
    </clipPath>
    <clipPath clipPathUnits="userSpaceOnUse" id="clipPath208">
      <path d="m 311.273,504.896 h 18.579 v 17.824 h -18.579 z" id="path206" inkscape:connector-curvature="0"></path>
    </clipPath>
    <clipPath clipPathUnits="userSpaceOnUse" id="clipPath196">
      <path d="m 313.001,424.424 h 17.113 v 9.593 h -17.113 z" id="path194" inkscape:connector-curvature="0"></path>
    </clipPath>
  </defs>
  <sodipodi:namedview id="base" pagecolor="#ffffff" bordercolor="#666666" borderopacity="1.0" inkscape:pageopacity="0.0" inkscape:pageshadow="2" inkscape:zoom="14.69409" inkscape:cx="4.1388358" inkscape:cy="11.807374" inkscape:document-units="mm" inkscape:current-layer="layer1" showgrid="false" fit-margin-top="0" fit-margin-left="0" fit-margin-right="0" fit-margin-bottom="0" inkscape:window-width="1920" inkscape:window-height="1061" inkscape:window-x="-4" inkscape:window-y="-4" inkscape:window-maximized="1"></sodipodi:namedview>
  <metadata id="metadata1648">
    <rdf:rdf>
      <cc:work rdf:about="">
        <dc:format>image/svg+xml</dc:format>
        <dc:type rdf:resource="http://purl.org/dc/dcmitype/StillImage"></dc:type>
        <dc:title></dc:title>
      </cc:work>
    </rdf:rdf>
  </metadata>
  <g inkscape:label="Capa 1" inkscape:groupmode="layer" id="layer1" transform="translate(-76.382199,-55.873607)">
    <g transform="matrix(0.3490166,0,0,-0.3490166,-32.835803,208.82982)" id="g190" style="fill-opacity:1">
      <g id="g192" clip-path="url(#clipPath196)" style="fill-opacity:1">
        <g id="g198" transform="translate(325.9757,427.267)" style="fill-opacity:1">
          <path d="m 0,0 c -1.17,-1.156 -2.696,-1.799 -4.295,-1.812 -0.046,0 -0.091,0 -0.136,0 -1.54,0.02 -3.021,0.631 -4.171,1.72 l -2.339,2.217 h 4.564 c 0.212,0 0.418,-0.045 0.611,-0.132 l 0.204,-0.092 c 0.349,-0.156 0.719,-0.235 1.088,-0.234 0.414,0 0.828,0.097 1.209,0.293 0.209,0.107 0.445,0.164 0.68,0.164 h 4.736 z m -8.232,5.297 c 0.605,0.506 1.471,0.583 2.156,0.192 l 1.671,-0.953 1.669,0.952 c 0.686,0.391 1.554,0.313 2.159,-0.195 L 1.993,3.138 H -2.585 C -2.98,3.138 -3.375,3.042 -3.728,2.862 -4.173,2.633 -4.689,2.62 -5.146,2.825 L -5.35,2.917 c -0.325,0.146 -0.671,0.221 -1.027,0.221 h -4.439 z M 0.074,6.07 c -0.928,0.779 -2.26,0.899 -3.312,0.298 L -4.405,5.703 -5.574,6.37 c -1.051,0.599 -2.38,0.481 -3.308,-0.295 l -4.093,-3.42 3.676,-3.482 c 1.335,-1.266 3.059,-1.975 4.855,-1.998 h 0.097 0.059 c 1.866,0.014 3.642,0.762 5,2.103 l 3.426,3.384 z" style="fill-opacity:1;fill-rule:nonzero;stroke:none" id="path200" inkscape:connector-curvature="0"></path>
        </g>
      </g>
    </g>
  </g>
</svg>