<svg xmlns:dc="http://purl.org/dc/elements/1.1/" xmlns:cc="http://creativecommons.org/ns#" xmlns:rdf="http://www.w3.org/1999/02/22-rdf-syntax-ns#" xmlns:svg="http://www.w3.org/2000/svg" xmlns="http://www.w3.org/2000/svg" xmlns:sodipodi="http://sodipodi.sourceforge.net/DTD/sodipodi-0.dtd" xmlns:inkscape="http://www.inkscape.org/namespaces/inkscape" width="6mm" height="6mm" viewBox="0 0 6 6" version="1.1" id="svg1651" inkscape:version="0.92.3 (2405546, 2018-03-11)" sodipodi:docname="termometro.svg">
  <defs id="defs1645">
    <clipPath clipPathUnits="userSpaceOnUse" id="clipPath298">
      <path d="m 312.472,668.818 h 17 v 17 h -17 z" id="path296" inkscape:connector-curvature="0"></path>
    </clipPath>
    <clipPath clipPathUnits="userSpaceOnUse" id="clipPath208">
      <path d="m 311.273,504.896 h 18.579 v 17.824 h -18.579 z" id="path206" inkscape:connector-curvature="0"></path>
    </clipPath>
    <clipPath clipPathUnits="userSpaceOnUse" id="clipPath196">
      <path d="m 313.001,424.424 h 17.113 v 9.593 h -17.113 z" id="path194" inkscape:connector-curvature="0"></path>
    </clipPath>
    <clipPath clipPathUnits="userSpaceOnUse" id="clipPath164">
      <path d="M 0,858.898 H 612.288 V 0 H 0 Z" id="path162" inkscape:connector-curvature="0"></path>
    </clipPath>
    <clipPath clipPathUnits="userSpaceOnUse" id="clipPath180">
      <path d="m 313.584,195.436 h 18.635 v 18.723 h -18.635 z" id="path178" inkscape:connector-curvature="0"></path>
    </clipPath>
    <clipPath clipPathUnits="userSpaceOnUse" id="clipPath220">
      <path d="m 319.973,94.284 h 6.215 v 16.875 h -6.215 z" id="path218" inkscape:connector-curvature="0"></path>
    </clipPath>
    <clipPath clipPathUnits="userSpaceOnUse" id="clipPath220-8">
      <path d="m 319.973,94.284 h 6.215 v 16.875 h -6.215 z" id="path218-1" inkscape:connector-curvature="0"></path>
    </clipPath>
  </defs>
  <sodipodi:namedview id="base" pagecolor="#ffffff" bordercolor="#666666" borderopacity="1.0" inkscape:pageopacity="0.0" inkscape:pageshadow="2" inkscape:zoom="14.69409" inkscape:cx="4.1388358" inkscape:cy="11.807374" inkscape:document-units="mm" inkscape:current-layer="layer1" showgrid="false" fit-margin-top="0" fit-margin-left="0" fit-margin-right="0" fit-margin-bottom="0" inkscape:window-width="1920" inkscape:window-height="1061" inkscape:window-x="-4" inkscape:window-y="-4" inkscape:window-maximized="1"></sodipodi:namedview>
  <metadata id="metadata1648">
    <rdf:rdf>
      <cc:work rdf:about="">
        <dc:format>image/svg+xml</dc:format>
        <dc:type rdf:resource="http://purl.org/dc/dcmitype/StillImage"></dc:type>
        <dc:title></dc:title>
      </cc:work>
    </rdf:rdf>
  </metadata>
  <g inkscape:label="Capa 1" inkscape:groupmode="layer" id="layer1" transform="translate(-76.382199,-55.873607)">
    <g transform="matrix(0.35277777,0,0,-0.35277777,-34.533485,95.122367)" id="g3086">
      <g id="g214">
        <g clip-path="url(#clipPath220-8)" id="g216">
          <g transform="translate(325.6168,97.3725)" id="g222">
            <path inkscape:connector-curvature="0" id="path224" style="fill-opacity:1;fill-rule:nonzero;stroke:none" d="m 0,0 c 0.002,-1.398 -1.13,-2.534 -2.529,-2.536 -1.398,-0.002 -2.533,1.131 -2.535,2.529 -0.001,0.798 0.374,1.55 1.013,2.028 0.071,0.054 0.112,0.137 0.112,0.226 v 0.848 h 0.563 v 0.562 h -0.563 v 0.844 h 0.563 v 0.563 h -0.563 v 0.844 h 0.563 v 0.563 h -0.563 v 0.843 h 0.563 v 0.564 h -0.563 v 0.844 h 0.563 v 0.562 h -0.563 v 0.845 h 0.563 v 0.562 h -0.563 v 1.125 c 0,0.778 0.63,1.408 1.407,1.408 0.777,0 1.407,-0.63 1.407,-1.408 v -9.57 c 0,-0.088 0.042,-0.172 0.112,-0.225 C -0.374,1.546 0.002,0.796 0,0 M -2.532,13.786 C -3.619,13.785 -4.5,12.903 -4.501,11.816 V 2.383 C -5.338,1.7 -5.753,0.629 -5.597,-0.439 -5.358,-2.132 -3.792,-3.311 -2.1,-3.071 -0.57,-2.855 0.566,-1.545 0.563,0 0.565,0.923 0.152,1.799 -0.562,2.383 v 9.433 c -0.002,1.087 -0.883,1.969 -1.97,1.97"></path>
          </g>
        </g>
      </g>
      <g transform="translate(323.0846,96.5277)" id="g234">
        <path inkscape:connector-curvature="0" id="path236" style="fill-opacity:1;fill-rule:nonzero;stroke:none" d="m 0,0 c -0.466,0 -0.844,0.378 -0.844,0.845 0,0.466 0.378,0.843 0.844,0.843 0.466,0 0.844,-0.377 0.844,-0.843 C 0.844,0.378 0.466,0 0,0 m 0.281,2.223 v 9.876 H -0.281 V 2.223 C -1.042,2.067 -1.534,1.324 -1.378,0.563 -1.223,-0.198 -0.48,-0.689 0.281,-0.533 1.042,-0.378 1.534,0.364 1.378,1.126 1.266,1.679 0.834,2.11 0.281,2.223"></path>
      </g>
    </g>
  </g>
</svg>