<svg xmlns:dc="http://purl.org/dc/elements/1.1/" xmlns:cc="http://creativecommons.org/ns#" xmlns:rdf="http://www.w3.org/1999/02/22-rdf-syntax-ns#" xmlns:svg="http://www.w3.org/2000/svg" xmlns="http://www.w3.org/2000/svg" xmlns:sodipodi="http://sodipodi.sourceforge.net/DTD/sodipodi-0.dtd" xmlns:inkscape="http://www.inkscape.org/namespaces/inkscape" width="6mm" height="6mm" viewBox="0 0 6 6" version="1.1" id="svg2256" inkscape:version="0.92.3 (2405546, 2018-03-11)" sodipodi:docname="clima.svg">
  <defs id="defs2250">
    <clipPath clipPathUnits="userSpaceOnUse" id="clipPath258">
      <path d="m 308.569,578.255 h 22.806 v 18.635 h -22.806 z" id="path256" inkscape:connector-curvature="0"></path>
    </clipPath>
  </defs>
  <sodipodi:namedview id="base" pagecolor="#ffffff" bordercolor="#666666" borderopacity="1.0" inkscape:pageopacity="0.0" inkscape:pageshadow="2" inkscape:zoom="10.765517" inkscape:cx="22.857143" inkscape:cy="-1.4285714" inkscape:document-units="mm" inkscape:current-layer="layer1" showgrid="false" fit-margin-top="0" fit-margin-left="0" fit-margin-right="0" fit-margin-bottom="0" inkscape:window-width="1920" inkscape:window-height="1061" inkscape:window-x="-4" inkscape:window-y="-4" inkscape:window-maximized="1"></sodipodi:namedview>
  <metadata id="metadata2253">
    <rdf:rdf>
      <cc:work rdf:about="">
        <dc:format>image/svg+xml</dc:format>
        <dc:type rdf:resource="http://purl.org/dc/dcmitype/StillImage"></dc:type>
        <dc:title></dc:title>
      </cc:work>
    </rdf:rdf>
  </metadata>
  <g inkscape:label="Capa 1" inkscape:groupmode="layer" id="layer1" transform="translate(-27.731318,-96.121646)">
    <g transform="matrix(0.26283725,0,0,-0.26283725,-53.372256,253.49089)" id="g2229">
      <g id="g252">
        <g clip-path="url(#clipPath258)" id="g254">
          <g transform="translate(330.6593,579.079)" id="g260">
            <path inkscape:connector-curvature="0" id="path262" style="fill:#7a6c45;fill-opacity:1;fill-rule:nonzero;stroke:none" d="m 0,0 c -0.018,-0.028 -0.06,-0.075 -0.137,-0.075 h -3.062 l -0.783,2.6 h 2.876 L 0.01,0.157 C 0.043,0.086 0.018,0.028 0,0 m -21.396,0 c -0.018,0.028 -0.043,0.086 -0.01,0.157 l 1.116,2.368 h 2.876 l -0.783,-2.6 h -3.062 c -0.077,0 -0.119,0.047 -0.137,0.075 m 9.339,14.271 1.027,-1.8 -4.021,-7.046 h -2.054 z M -7.11,5.484 C -7.123,5.462 -7.153,5.425 -7.211,5.425 h -1.426 l 0.814,1.427 0.714,-1.251 C -7.08,5.55 -7.097,5.506 -7.11,5.484 m 2.455,-0.726 h 2.497 L -1.42,3.193 H -4.183 Z M -8.313,3.193 -8.469,4.758 h 3.117 L -4.88,3.193 Z m -4.166,-0.668 h 3.562 l 0.261,-2.6 h -4.084 z m 3.339,2.233 0.157,-1.565 h -3.43 l 0.157,1.565 z m 0.932,2.767 -1.197,-2.1 h -2.055 l 2.226,3.899 z m -1.411,2.473 -2.609,-4.573 h -2.055 l 3.637,6.372 z m -6.425,-5.24 h 3.117 l -0.156,-1.565 h -3.433 z m -0.698,0 -0.471,-1.565 h -2.763 l 0.738,1.565 z m -0.758,-4.833 0.784,2.6 h 3.566 l -0.261,-2.6 z m 9.515,0 -0.261,2.6 h 3.567 l 0.783,-2.6 z m 8.599,0.516 -2.051,4.352 c 0.186,0.057 0.345,0.181 0.446,0.356 0.142,0.245 0.143,0.538 0.003,0.783 l -0.941,1.65 C -2.021,7.742 -2.225,7.797 -2.384,7.706 -2.544,7.614 -2.6,7.411 -2.509,7.25 l 0.941,-1.649 c 0.029,-0.051 0.012,-0.095 0,-0.117 C -1.581,5.462 -1.611,5.426 -1.67,5.426 h -4.765 c 0.027,0.171 -0.004,0.348 -0.095,0.506 l -0.901,1.579 2.285,4.002 c 0.029,0.052 0.077,0.059 0.102,0.059 0.025,0 0.073,-0.007 0.102,-0.059 L -3.291,8.62 c 0.092,-0.161 0.296,-0.216 0.456,-0.125 0.16,0.092 0.215,0.296 0.125,0.456 l -1.652,2.893 c -0.141,0.248 -0.396,0.396 -0.682,0.396 -0.285,0 -0.54,-0.148 -0.682,-0.396 l -2.089,-3.66 -4.972,8.712 c -0.142,0.248 -0.397,0.396 -0.682,0.396 -0.285,0 -0.54,-0.148 -0.682,-0.396 l -1.098,-1.925 c -0.091,-0.16 -0.036,-0.364 0.124,-0.455 0.16,-0.092 0.364,-0.036 0.456,0.124 l 1.098,1.925 c 0.029,0.051 0.077,0.059 0.102,0.059 0.026,0 0.073,-0.008 0.102,-0.059 l 0.926,-1.621 -5.433,-9.519 h -1.852 c -0.059,0 -0.089,0.037 -0.102,0.059 -0.012,0.022 -0.029,0.066 0,0.117 l 1.394,2.442 c 0.091,0.161 0.036,0.364 -0.125,0.456 -0.16,0.091 -0.364,0.036 -0.455,-0.124 l -1.394,-2.443 c -0.14,-0.245 -0.139,-0.538 0.003,-0.783 0.101,-0.175 0.26,-0.299 0.446,-0.356 L -22.01,0.441 c -0.122,-0.258 -0.103,-0.557 0.05,-0.798 0.153,-0.242 0.416,-0.386 0.701,-0.386 h 21.122 c 0.286,0 0.548,0.144 0.701,0.386 0.153,0.241 0.171,0.54 0.05,0.798"></path>
          </g>
        </g>
      </g>
      <path transform="matrix(0.75000002,0,0,-0.75000002,0,858.898)" inkscape:connector-curvature="0" id="path1621" d="m 412.36223,374.06571 c -0.22103,-0.0371 -0.49136,-0.18125 -0.63052,-0.3361 -0.2006,-0.22321 -0.28683,-0.44416 -0.28673,-0.73469 4e-5,-0.10904 0.01,-0.23974 0.0213,-0.29045 0.0117,-0.0507 0.64169,-1.40767 1.4,-3.01547 0.75831,-1.60779 1.38316,-2.93845 1.38856,-2.95702 0.007,-0.0249 -0.0263,-0.0506 -0.12772,-0.0981 -0.23821,-0.11147 -0.44176,-0.33912 -0.53666,-0.60021 -0.0674,-0.18539 -0.0643,-0.49276 0.007,-0.67654 0.0857,-0.22181 1.9458,-3.46384 2.03042,-3.53893 0.16758,-0.14871 0.40719,-0.14684 0.57468,0.004 0.10471,0.0946 0.15409,0.22287 0.14136,0.36716 -0.009,0.0994 -0.1005,0.26917 -0.94375,1.74663 -0.51372,0.90009 -0.94822,1.66628 -0.96556,1.70263 -0.0284,0.0595 -0.0281,0.0726 0.002,0.13176 0.0187,0.0361 0.0549,0.0707 0.0805,0.0769 0.0256,0.006 0.60802,0.009 1.29423,0.006 l 1.24765,-0.006 3.61905,-6.34045 3.61904,-6.34045 -0.58543,-1.02606 c -0.67456,-1.18226 -0.67121,-1.17678 -0.73795,-1.20719 -0.12393,-0.0565 -0.11878,-0.064 -0.89752,1.30388 -0.3999,0.70241 -0.75055,1.31287 -0.77923,1.35658 -0.0566,0.0863 -0.18208,0.16889 -0.2911,0.19163 -0.10443,0.0218 -0.2607,-0.0248 -0.35557,-0.10601 -0.10711,-0.0917 -0.15795,-0.22022 -0.14567,-0.3683 0.008,-0.0997 0.0837,-0.24159 0.77997,-1.46653 0.69766,-1.22744 0.7837,-1.36921 0.90647,-1.49366 0.42889,-0.43473 1.134,-0.40493 1.52474,0.0645 0.043,0.0516 1.55414,2.68105 3.3581,5.84312 1.80396,3.16207 3.30364,5.79011 3.33262,5.84009 l 0.0527,0.0909 1.41411,-2.48029 c 1.29147,-2.26518 1.42567,-2.4921 1.54731,-2.6164 0.0733,-0.0749 0.18086,-0.16141 0.23911,-0.19235 0.39509,-0.20981 0.90378,-0.13786 1.21723,0.17215 0.10174,0.10063 0.26091,0.36804 1.2361,2.07665 0.61563,1.07864 1.13419,1.99069 1.15237,2.02679 0.088,0.17476 0.0594,0.3576 -0.0788,0.50386 l -0.089,0.0942 0.29403,0.51868 c 0.2557,0.45107 0.29947,0.51708 0.33577,0.50638 0.19726,-0.0582 0.39125,-0.0194 0.50464,0.10098 0.0815,0.0865 1.35622,2.3262 1.40558,2.46967 0.0859,0.24972 0.065,0.55153 -0.0552,0.79731 -0.0848,0.17328 -0.27492,0.36246 -0.45851,0.45618 -0.10807,0.0552 -0.15363,0.0895 -0.1475,0.11113 0.005,0.0172 0.61214,1.30844 1.34946,2.86939 0.73733,1.56095 1.36816,2.91595 1.40184,3.01111 0.13406,0.37873 0.0525,0.79638 -0.21386,1.09524 -0.12041,0.13509 -0.26253,0.2306 -0.45419,0.30521 l -0.13937,0.0543 -14.25304,0.002 c -7.83918,10e-4 -14.27652,-0.002 -14.30522,-0.006 z m 4.31754,-1.06557 c 0.14655,-0.47944 0.98301,-3.26406 0.98301,-3.27249 0,-0.005 -0.86505,-0.007 -1.92233,-0.004 l -1.92233,0.005 -0.74802,1.58599 c -0.54275,1.15078 -0.74823,1.60669 -0.74881,1.66143 -8.7e-4,0.0827 0.0598,0.1773 0.13252,0.2067 0.0242,0.01 0.971,0.0184 2.10392,0.0191 l 2.05984,0.001 0.0622,-0.20346 z m 6.32529,0.19159 c 0,-0.007 0.0751,-0.76183 0.16695,-1.67846 0.0918,-0.91663 0.16694,-1.69541 0.16694,-1.73063 v -0.064 h -2.37655 c -2.24566,0 -2.3771,0.002 -2.38654,0.0365 -0.0191,0.0699 -1.0231,3.39649 -1.0329,3.4224 -0.008,0.0208 0.54599,0.0261 2.72612,0.0261 1.50479,0 2.73598,-0.005 2.73598,-0.0119 z m 6.32954,-0.004 c 0.005,-0.009 -0.0693,-0.78569 -0.16498,-1.72685 -0.0956,-0.94116 -0.17422,-1.71824 -0.17463,-1.72685 -6.4e-4,-0.0136 -4.75748,-0.0241 -4.75945,-0.0104 -0.0216,0.14967 -0.34528,3.45356 -0.33939,3.46414 0.005,0.009 1.2284,0.0156 2.71913,0.0156 1.49072,0 2.71442,-0.007 2.71932,-0.0156 z m 6.35293,-0.0104 c -0.009,-0.0237 -1.00851,-3.33644 -1.0326,-3.4224 -0.01,-0.0345 -0.14105,-0.0365 -2.38331,-0.0365 -1.30518,0 -2.3772,0.004 -2.38224,0.009 -0.005,0.005 0.068,0.77274 0.16226,1.70599 0.0943,0.93324 0.17198,1.71324 0.17264,1.73332 10e-4,0.0346 0.14587,0.0365 2.73719,0.0365 2.18015,0 2.73396,-0.005 2.72606,-0.0261 z m 5.16163,-0.0525 c 0.0447,-0.05 0.0607,-0.0889 0.0602,-0.14608 -5e-4,-0.0582 -0.19009,-0.4794 -0.74894,-1.66392 l -0.74825,-1.58599 -1.92221,-0.005 c -1.05722,-0.003 -1.92221,-4.8e-4 -1.92221,0.005 0,0.01 0.82192,2.74459 0.98305,3.27127 l 0.0623,0.20376 2.08756,-0.006 2.08755,-0.006 z m -22.89696,-4.35071 c 0.0605,-0.19193 0.60792,-2.01855 0.60792,-2.02839 0,-0.006 -0.74955,-0.0115 -1.66566,-0.0115 h -1.66566 l -0.48899,1.03578 c -0.26895,0.56968 -0.49213,1.04391 -0.49595,1.05385 -0.004,0.0101 0.80782,0.0181 1.84001,0.0181 h 1.84696 z m 5.4918,0.0313 c 3.8e-4,-0.0201 0.0463,-0.48728 0.10206,-1.0382 0.0557,-0.55092 0.0971,-1.00872 0.092,-1.01733 -0.005,-0.009 -0.93818,-0.0157 -2.07338,-0.0157 -1.9445,0 -2.0651,0.002 -2.08313,0.0365 -0.0105,0.0201 -0.15196,0.47788 -0.31429,1.01733 -0.16233,0.53945 -0.30024,0.99724 -0.30646,1.01733 -0.0107,0.0346 0.10767,0.0365 2.28561,0.0365 2.17336,0 2.29695,-0.002 2.29762,-0.0365 z m 5.45723,-0.0522 c -0.007,-0.0488 -0.0544,-0.51491 -0.10616,-1.03585 -0.0517,-0.52094 -0.0991,-0.95526 -0.10517,-0.96516 -0.0146,-0.0235 -4.1347,-0.0235 -4.14925,0 -0.006,0.01 -0.0534,0.44422 -0.10517,0.96516 -0.0517,0.52094 -0.0995,0.98707 -0.10616,1.03585 l -0.0121,0.0887 h 2.29807 2.29806 z m 5.47197,0.0626 c -0.005,-0.0143 -0.14355,-0.47214 -0.30734,-1.01733 -0.16378,-0.54518 -0.30638,-1.00767 -0.31688,-1.02776 -0.018,-0.0344 -0.13856,-0.0365 -2.08308,-0.0365 -1.1352,0 -2.06819,0.007 -2.07331,0.0157 -0.005,0.009 0.0362,0.4711 0.0918,1.02777 0.0556,0.55666 0.10151,1.02385 0.10199,1.03819 7e-4,0.0207 0.4748,0.0261 2.29862,0.0261 1.82937,0 2.2958,-0.005 2.2882,-0.0261 z m 4.61349,0.008 c -0.004,-0.01 -0.227,-0.48417 -0.49595,-1.05385 l -0.48899,-1.03578 h -1.66566 c -0.91611,0 -1.66566,0.006 -1.66566,0.0133 0,0.0116 0.55054,1.84778 0.60763,2.02659 l 0.0217,0.0678 h 1.84696 c 1.03219,0 1.8439,-0.008 1.84001,-0.0181 z m -15.48606,-7.6679 2.67721,-4.69136 -0.68284,-1.19896 c -0.53223,-0.93452 -0.68822,-1.19315 -0.70723,-1.17262 -0.0278,0.03 -6.70763,11.73421 -6.70763,11.75288 0,0.007 0.61724,0.01 1.37164,0.007 l 1.37163,-0.005 z m 2.81971,1.65376 1.73867,-3.04804 -0.58004,-1.01606 c -0.31903,-0.55883 -0.62627,-1.09892 -0.68276,-1.2002 -0.0565,-0.10128 -0.11041,-0.1764 -0.11982,-0.16695 -0.0158,0.0159 -4.74448,8.29328 -4.81124,8.42191 l -0.0298,0.0574 h 1.37315 1.37316 z m 2.79996,1.68847 c 0.42628,-0.74777 0.7841,-1.37945 0.79517,-1.40373 0.017,-0.0373 -0.0857,-0.22984 -0.66143,-1.2405 -0.37485,-0.65799 -0.68871,-1.18842 -0.69747,-1.17872 -0.009,0.01 -0.66139,1.1492 -1.45029,2.53225 -0.7889,1.38305 -1.45295,2.54515 -1.47566,2.58245 l -0.0413,0.0678 h 1.37797 1.37796 z m 5.40752,-3.33756 c 0.38515,-0.19649 0.31322,-0.74921 -0.10877,-0.83589 -0.16341,-0.0336 -0.27491,10e-4 -0.3982,0.12512 -0.16718,0.16767 -0.18272,0.38571 -0.0414,0.58081 0.11929,0.16467 0.36581,0.22309 0.54836,0.12996 z" style="fill-opacity:1;stroke-width:0.02086829"></path>
      <path transform="matrix(0.75000002,0,0,-0.75000002,0,858.898)" inkscape:connector-curvature="0" id="path1623" d="m 437.24369,358.27165 c -0.0663,-0.033 -0.12851,-0.0852 -0.16583,-0.13905 l -0.0597,-0.0862 -0.006,-0.80588 -0.006,-0.80587 0.0492,-0.0933 c 0.0731,-0.13854 0.19351,-0.2146 0.356,-0.22495 0.1556,-0.01 0.26126,0.0339 0.36388,0.15074 0.0773,0.0881 0.10845,0.18901 0.1086,0.3523 l 1.2e-4,0.12095 0.14086,-0.006 0.14086,-0.006 0.0107,-0.16695 c 0.0111,-0.17422 0.0431,-0.25838 0.12851,-0.33811 0.15556,-0.14525 0.44247,-0.14525 0.59819,0 0.0271,0.0253 0.0695,0.0835 0.0942,0.12943 0.0437,0.0812 0.0449,0.10473 0.0449,0.86603 v 0.78256 l -0.0522,0.093 c -0.0783,0.13955 -0.20081,0.21635 -0.36041,0.22593 -0.16249,0.01 -0.28784,-0.05 -0.38041,-0.18142 -0.0571,-0.0811 -0.0635,-0.10752 -0.073,-0.30099 l -0.0104,-0.21213 -0.14086,-0.006 -0.14086,-0.006 v 0.16528 c 0,0.26936 -0.0787,0.42227 -0.26085,0.50659 -0.11864,0.0549 -0.25208,0.0503 -0.37961,-0.0133 z" style="fill-opacity:1;stroke-width:0.02086829"></path>
      <path transform="matrix(0.75000002,0,0,-0.75000002,0,858.898)" inkscape:connector-curvature="0" id="path1625" d="m 441.00782,366.63084 c -0.0932,-0.0297 -0.19852,-0.12094 -0.24925,-0.21586 l -0.0468,-0.0875 -0.005,-4.33539 -0.005,-4.33538 -0.41195,-1.2e-4 c -0.23734,-7e-5 -0.44731,-0.01 -0.49536,-0.0233 -0.0489,-0.0136 -0.11911,-0.0589 -0.16976,-0.10951 -0.18314,-0.18314 -0.17431,-0.46265 0.02,-0.63325 0.1234,-0.10835 0.16804,-0.11344 0.93226,-0.10636 0.79473,0.007 0.80674,0.01 0.92864,0.18229 l 0.0626,0.0886 0.005,4.63785 0.005,4.63786 -0.0487,0.0922 c -0.0895,0.16952 -0.33496,0.26728 -0.52158,0.20776 z" style="fill-opacity:1;stroke-width:0.02086829"></path>
      <path transform="matrix(0.75000002,0,0,-0.75000002,0,858.898)" inkscape:connector-curvature="0" id="path1627" d="m 416.84878,360.74767 c -0.27284,-0.0886 -0.40503,-0.35667 -0.29447,-0.59718 0.0318,-0.0691 2.89523,-5.09371 2.98838,-5.2438 0.0163,-0.0262 0.0663,-0.0731 0.11123,-0.10434 0.0715,-0.0497 0.10153,-0.0567 0.24151,-0.0567 0.13868,0 0.17107,0.007 0.24493,0.0563 0.12258,0.0811 0.20193,0.24941 0.18932,0.4015 -0.009,0.1046 -0.12075,0.30796 -1.50428,2.72968 -0.8222,1.43916 -1.51494,2.64212 -1.53942,2.67324 -0.087,0.11055 -0.30996,0.18264 -0.4372,0.14133 z" style="fill-opacity:1;stroke-width:0.02086829"></path>
    </g>
  </g>
</svg>