<svg xmlns:dc="http://purl.org/dc/elements/1.1/" xmlns:cc="http://creativecommons.org/ns#" xmlns:rdf="http://www.w3.org/1999/02/22-rdf-syntax-ns#" xmlns:svg="http://www.w3.org/2000/svg" xmlns="http://www.w3.org/2000/svg" xmlns:sodipodi="http://sodipodi.sourceforge.net/DTD/sodipodi-0.dtd" xmlns:inkscape="http://www.inkscape.org/namespaces/inkscape" width="6mm" height="6mm" viewBox="0 0 6 6" version="1.1" id="svg1651" inkscape:version="0.92.3 (2405546, 2018-03-11)" sodipodi:docname="racimo.svg">
  <defs id="defs1645">
    <clipPath clipPathUnits="userSpaceOnUse" id="clipPath298">
      <path d="m 312.472,668.818 h 17 v 17 h -17 z" id="path296" inkscape:connector-curvature="0"></path>
    </clipPath>
  </defs>
  <sodipodi:namedview id="base" pagecolor="#ffffff" bordercolor="#666666" borderopacity="1.0" inkscape:pageopacity="0.0" inkscape:pageshadow="2" inkscape:zoom="14.69409" inkscape:cx="4.1388358" inkscape:cy="11.807374" inkscape:document-units="mm" inkscape:current-layer="layer1" showgrid="false" fit-margin-top="0" fit-margin-left="0" fit-margin-right="0" fit-margin-bottom="0" inkscape:window-width="1920" inkscape:window-height="1061" inkscape:window-x="-4" inkscape:window-y="-4" inkscape:window-maximized="1"></sodipodi:namedview>
  <metadata id="metadata1648">
    <rdf:rdf>
      <cc:work rdf:about="">
        <dc:format>image/svg+xml</dc:format>
        <dc:type rdf:resource="http://purl.org/dc/dcmitype/StillImage"></dc:type>
        <dc:title></dc:title>
      </cc:work>
    </rdf:rdf>
  </metadata>
  <g inkscape:label="Capa 1" inkscape:groupmode="layer" id="layer1" transform="translate(-76.382199,-55.873607)">
    <g transform="matrix(0.35277777,0,0,-0.35277777,-33.862595,297.81773)" id="g292">
      <g id="g294" clip-path="url(#clipPath298)">
        <g id="g300" transform="translate(328.7814,675.767)">
          <path d="M 0,0 C -1,0.209 -1.371,0.81 -1.413,0.883 -1.503,1.041 -1.703,1.097 -1.862,1.009 -2.021,0.921 -2.08,0.721 -1.994,0.562 -1.907,0.4 -1.229,-1.02 -3.441,-2.346 c -0.338,0.203 -0.625,0.418 -0.86,0.643 0.769,0.216 1.336,0.922 1.336,1.759 0,0.276 -0.062,0.537 -0.172,0.771 0.932,0.082 1.666,0.866 1.666,1.819 0,0.656 -0.348,1.232 -0.87,1.554 0.179,0.071 0.356,0.105 0.529,0.101 C -1.24,4.287 -0.694,3.863 -0.187,3.039 -0.498,2.829 -0.656,2.8 -0.681,2.796 -0.83,2.799 -0.966,2.701 -1.007,2.555 -1.051,2.4 -0.978,2.236 -0.833,2.166 -0.784,2.142 0.309,1.574 0,0 m -6.282,-3.697 c -0.64,0 -1.162,0.522 -1.162,1.162 0,0.641 0.522,1.162 1.162,1.162 0.641,0 1.162,-0.521 1.162,-1.162 0,-0.64 -0.521,-1.162 -1.162,-1.162 m -1.494,-2.588 c -0.641,0 -1.162,0.521 -1.162,1.162 0,0.641 0.521,1.162 1.162,1.162 0.641,0 1.162,-0.521 1.162,-1.162 0,-0.641 -0.521,-1.162 -1.162,-1.162 m -2.656,3.75 c 0,0.641 0.521,1.162 1.162,1.162 0.641,0 1.162,-0.521 1.162,-1.162 0,-0.64 -0.521,-1.162 -1.162,-1.162 -0.641,0 -1.162,0.522 -1.162,1.162 m -1.498,2.591 c 0,0.641 0.521,1.162 1.162,1.162 0.641,0 1.162,-0.521 1.162,-1.162 0,-0.641 -0.521,-1.162 -1.162,-1.162 -0.641,0 -1.162,0.521 -1.162,1.162 m -1.455,2.289 c 0.585,0.03 1.089,0.195 1.508,0.493 0.087,0.063 0.167,0.129 0.239,0.196 0.068,-0.284 0.19,-0.602 0.399,-0.938 -0.201,-0.375 -0.592,-0.612 -1.023,-0.612 -0.537,0 -0.989,0.365 -1.123,0.861 m -0.31,3.893 c 0.174,0.052 0.274,0.235 0.224,0.409 -0.05,0.175 -0.232,0.277 -0.407,0.229 -0.081,-0.022 -0.768,-0.185 -1.623,0.374 0.894,1.332 2.068,0.961 2.118,0.944 0.153,-0.053 0.32,0.011 0.399,0.151 0.074,0.133 0.049,0.298 -0.058,0.401 -0.016,0.02 -0.106,0.152 -0.179,0.521 0.898,0.213 1.563,0.145 1.982,-0.203 0.496,-0.413 0.535,-1.141 0.531,-1.417 l -0.344,-0.343 -1.649,0.104 c -0.183,0.012 -0.341,-0.127 -0.353,-0.31 -0.011,-0.183 0.128,-0.341 0.311,-0.352 l 1.065,-0.068 -1.024,-1.024 c -0.13,-0.13 -0.13,-0.34 0,-0.47 0.065,-0.064 0.15,-0.097 0.235,-0.097 0.085,0 0.17,0.033 0.235,0.097 l 1.126,1.126 0.065,-1.046 c 0.012,-0.176 0.158,-0.311 0.332,-0.311 0.007,0 0.014,0 0.021,0 0.183,0.012 0.322,0.17 0.31,0.352 l -0.102,1.631 0.242,0.242 c 0.276,0.004 1.003,-0.035 1.416,-0.532 0.348,-0.418 0.416,-1.084 0.202,-1.98 -0.367,0.071 -0.5,0.163 -0.52,0.177 -0.104,0.108 -0.269,0.135 -0.401,0.06 -0.141,-0.078 -0.205,-0.245 -0.152,-0.398 0.018,-0.052 0.388,-1.226 -0.943,-2.12 -0.559,0.855 -0.396,1.542 -0.374,1.623 0.048,0.176 -0.054,0.357 -0.229,0.407 -0.031,0.009 -0.061,0.013 -0.092,0.013 -0.143,0 -0.274,-0.093 -0.317,-0.237 -0.053,-0.175 -0.578,-1.659 -3.08,-1.032 -0.626,2.501 0.858,3.026 1.033,3.079 m 6.292,1.957 C -7.41,8.185 -7.416,8.176 -7.422,8.166 -7.722,7.689 -7.927,7.164 -8.031,6.617 -8.105,6.785 -8.2,6.938 -8.315,7.076 c -0.349,0.416 -0.819,0.61 -1.227,0.697 0.611,0.444 1.395,0.603 2.139,0.422 M -6.629,4.439 C -7.103,4.349 -7.512,4.074 -7.78,3.694 c -0.099,0.14 -0.217,0.266 -0.35,0.373 0.034,0.037 0.06,0.082 0.074,0.133 0.131,0.454 0.203,0.869 0.218,1.245 0.019,-0.004 0.038,-0.006 0.058,-0.006 0.586,0 1.072,-0.436 1.151,-1 m 1.837,1 c 0.586,0 1.072,-0.436 1.151,-1 -0.474,-0.09 -0.883,-0.365 -1.151,-0.745 -0.268,0.38 -0.676,0.655 -1.15,0.745 0.079,0.564 0.565,1 1.15,1 m 0.333,-2.793 c 0,0.641 0.521,1.162 1.162,1.162 0.64,0 1.162,-0.521 1.162,-1.162 0,-0.641 -0.522,-1.162 -1.162,-1.162 -0.641,0 -1.162,0.521 -1.162,1.162 m -0.333,-3.752 c -0.641,0 -1.162,0.521 -1.162,1.162 0,0.641 0.521,1.162 1.162,1.162 0.641,0 1.163,-0.521 1.163,-1.162 0,-0.641 -0.522,-1.162 -1.163,-1.162 M -7.78,1.218 c 0.641,0 1.162,-0.521 1.162,-1.162 0,-0.641 -0.521,-1.162 -1.162,-1.162 -0.641,0 -1.162,0.521 -1.162,1.162 0,0.641 0.521,1.162 1.162,1.162 m 1.494,2.59 c 0.641,0 1.162,-0.521 1.162,-1.162 0,-0.641 -0.521,-1.162 -1.162,-1.162 -0.641,0 -1.162,0.521 -1.162,1.162 0,0.641 0.521,1.162 1.162,1.162 M -9.01,3.616 c 0.01,0.053 0.017,0.105 0.023,0.156 0.502,-0.128 0.875,-0.584 0.875,-1.126 0,-0.641 -0.521,-1.163 -1.162,-1.163 -0.35,0 -0.675,0.157 -0.893,0.419 0.79,0.567 1.068,1.229 1.157,1.714 M 0.279,2.02 C 0.186,2.155 0.086,2.27 -0.009,2.366 0.125,2.444 0.28,2.548 0.455,2.686 0.583,2.786 0.62,2.965 0.541,3.107 -0.13,4.319 -0.916,4.943 -1.795,4.964 -2.199,4.974 -2.603,4.854 -2.996,4.609 -3.153,5.458 -3.898,6.104 -4.792,6.104 -5.409,6.104 -5.955,5.795 -6.286,5.325 -6.553,5.706 -6.962,5.979 -7.436,6.07 -7.347,7.184 -6.77,8.209 -5.878,8.866 -5.986,8.444 -5.976,7.993 -5.837,7.56 -5.571,6.73 -4.8,6.2 -3.972,6.2 c 0.198,0 0.399,0.03 0.597,0.094 0.857,0.275 1.331,1.196 1.056,2.053 C -2.431,8.696 -2.672,8.98 -2.999,9.148 -3.325,9.316 -3.696,9.347 -4.045,9.234 -4.341,9.14 -4.583,8.935 -4.725,8.658 -4.868,8.382 -4.894,8.066 -4.798,7.77 c 0.135,-0.423 0.528,-0.693 0.95,-0.693 0.101,0 0.203,0.015 0.305,0.048 0.174,0.056 0.271,0.243 0.214,0.417 -0.056,0.175 -0.243,0.271 -0.417,0.215 -0.085,-0.027 -0.175,-0.02 -0.255,0.021 -0.079,0.041 -0.138,0.11 -0.165,0.195 -0.041,0.127 -0.03,0.263 0.031,0.381 0.061,0.12 0.165,0.207 0.292,0.248 0.18,0.058 0.372,0.042 0.541,-0.044 0.168,-0.087 0.293,-0.234 0.35,-0.414 C -2.789,7.636 -3.069,7.089 -3.578,6.926 -4.257,6.708 -4.987,7.083 -5.205,7.763 -5.4,8.372 -5.241,9.031 -4.789,9.484 v 10e-4 c 0.097,0.097 0.127,0.248 0.064,0.378 -0.08,0.165 -0.278,0.235 -0.443,0.155 L -5.564,9.827 C -6.102,9.568 -6.578,9.208 -6.971,8.767 l -0.193,0.052 c -1.02,0.278 -2.112,0.038 -2.92,-0.625 -0.072,0.438 -0.259,0.985 -0.727,1.377 -0.64,0.536 -1.607,0.624 -2.876,0.26 -0.156,-0.045 -0.257,-0.198 -0.237,-0.36 0.027,-0.221 0.062,-0.404 0.102,-0.554 h -0.001 c -0.135,0 -0.285,-0.011 -0.447,-0.041 -0.559,-0.103 -1.352,-0.455 -1.964,-1.553 -0.08,-0.142 -0.044,-0.321 0.083,-0.422 0.469,-0.371 0.916,-0.561 1.298,-0.653 -0.066,-0.072 -0.132,-0.151 -0.195,-0.239 -0.557,-0.784 -0.649,-1.864 -0.27,-3.211 0.031,-0.112 0.118,-0.199 0.23,-0.23 0.359,-0.101 0.7,-0.169 1.021,-0.203 0.127,-0.822 0.805,-1.465 1.644,-1.538 -0.11,-0.234 -0.171,-0.496 -0.171,-0.771 0,-0.954 0.736,-1.74 1.67,-1.819 -0.11,-0.235 -0.172,-0.496 -0.172,-0.772 0,-0.952 0.733,-1.736 1.665,-1.819 -0.11,-0.233 -0.171,-0.494 -0.171,-0.769 0,-1.007 0.819,-1.826 1.826,-1.826 1.007,0 1.826,0.819 1.826,1.826 0,0.275 -0.061,0.536 -0.17,0.769 0.932,0.083 1.664,0.867 1.664,1.819 0,0.03 0,0.058 -0.002,0.088 0.25,-0.201 0.535,-0.393 0.854,-0.573 0.051,-0.028 0.107,-0.042 0.163,-0.042 0.056,0 0.112,0.014 0.163,0.042 1.22,0.686 1.92,1.514 2.079,2.462 0.018,0.107 0.028,0.21 0.032,0.308 0.334,-0.206 0.786,-0.387 1.379,-0.456 0.163,-0.019 0.313,0.082 0.358,0.239 0.343,1.209 0.031,2.02 -0.291,2.487" style="fill-opacity:1;fill-rule:nonzero;stroke:none" id="path302" inkscape:connector-curvature="0"></path>
        </g>
      </g>
    </g>
  </g>
</svg>